<?xml version="1.0" standalone="no"?>
<!DOCTYPE svg PUBLIC "-//W3C//DTD SVG 20010904//EN"
 "http://www.w3.org/TR/2001/REC-SVG-20010904/DTD/svg10.dtd">
<svg version="1.0" xmlns="http://www.w3.org/2000/svg"
 width="398.000000pt" height="127.000000pt" viewBox="0 0 398.000000 127.000000"
 preserveAspectRatio="xMidYMid meet">

<g transform="translate(0.000000,127.000000) scale(0.100000,-0.100000)"
fill="#000000" stroke="none">
<path d="M136 1109 c-14 -20 -16 -66 -16 -344 0 -274 2 -324 16 -343 15 -21
20 -22 199 -22 162 0 191 3 240 21 77 29 154 102 191 181 26 56 29 74 29 163
0 87 -3 107 -27 157 -35 76 -98 142 -167 175 -55 27 -61 28 -252 31 -196 3
-197 3 -213 -19z m419 -108 c46 -21 101 -79 122 -130 23 -55 20 -171 -7 -225
-29 -60 -98 -121 -155 -135 -24 -6 -98 -11 -164 -11 l-121 0 0 260 0 260 143
0 c116 0 149 -4 182 -19z"/>
<path d="M926 1114 c-14 -13 -16 -59 -16 -353 0 -249 3 -340 12 -349 9 -9 77
-12 244 -12 198 0 235 2 248 16 19 19 21 58 3 73 -9 7 -85 12 -208 13 l-194 3
-3 103 -3 102 164 0 c146 0 166 2 180 18 23 26 21 58 -5 76 -18 13 -54 16
-180 16 l-158 0 0 100 0 100 188 0 c154 0 192 3 210 16 27 18 29 55 4 77 -16
15 -48 17 -245 17 -192 0 -228 -2 -241 -16z"/>
<path d="M1558 1119 c-17 -9 -18 -37 -18 -352 0 -254 3 -346 12 -355 16 -16
65 -15 75 1 4 6 10 121 13 255 l5 243 107 -145 c105 -141 132 -166 162 -149 8
4 54 60 102 123 48 63 98 128 111 143 l23 29 0 -234 c0 -254 5 -278 55 -278
55 0 55 3 55 364 0 310 -1 334 -18 349 -45 41 -44 41 -301 -296 -24 -31 -46
-57 -50 -57 -3 0 -19 19 -36 43 -68 98 -229 313 -239 319 -15 11 -38 9 -58 -3z"/>
<path d="M3447 1116 c-57 -16 -146 -75 -182 -122 -31 -40 -75 -132 -75 -156 0
-14 8 -18 32 -18 17 0 39 -7 49 -16 17 -15 19 -14 25 12 20 82 102 174 173
194 93 26 181 6 251 -57 102 -92 114 -247 28 -354 -29 -35 -102 -79 -152 -90
-113 -25 -241 52 -290 174 -20 49 -25 55 -36 42 -7 -8 -28 -15 -46 -15 -44 0
-44 -17 1 -108 41 -81 94 -133 174 -171 48 -22 69 -26 151 -26 88 0 101 3 162
33 122 60 200 182 201 315 0 91 -13 139 -62 214 -85 131 -247 191 -404 149z"/>
<path d="M2667 344 c-4 -4 -7 -14 -7 -23 0 -11 3 -12 11 -4 6 6 10 16 7 23 -2
6 -7 8 -11 4z"/>
<path d="M1153 210 c0 -47 2 -66 4 -42 2 23 2 61 0 85 -2 23 -4 4 -4 -43z"/>
<path d="M1260 210 c0 -47 4 -80 10 -80 6 0 10 25 10 55 0 30 3 55 8 55 4 0
17 -15 30 -34 12 -18 34 -43 47 -56 l25 -23 -2 84 c-1 68 -2 73 -5 27 -2 -32
-7 -58 -11 -58 -4 0 -27 25 -51 55 -24 30 -48 55 -52 55 -5 0 -9 -36 -9 -80z"/>
<path d="M1523 278 c-33 -16 -46 -62 -29 -103 11 -26 22 -35 49 -40 45 -9 77
8 77 40 0 31 -17 33 -22 3 -2 -16 -11 -24 -28 -26 -55 -6 -89 59 -50 98 18 18
29 21 64 16 38 -6 40 -5 22 9 -23 17 -51 18 -83 3z"/>
<path d="M1710 210 l0 -80 55 0 c30 0 55 5 55 10 0 6 -20 10 -45 10 -43 0 -45
1 -45 29 0 27 4 30 38 34 l37 4 -37 1 c-33 2 -38 5 -38 27 0 23 4 25 45 25 25
0 45 5 45 10 0 6 -25 10 -55 10 l-55 0 0 -80z"/>
<path d="M1910 208 c0 -89 17 -99 22 -13 l3 50 44 -57 c24 -32 47 -58 52 -58
5 0 9 36 9 80 0 91 -17 109 -22 23 l-3 -58 -45 58 c-25 31 -48 57 -52 57 -5 0
-8 -37 -8 -82z"/>
<path d="M2135 278 c-9 -24 -1 -143 10 -143 13 0 19 135 6 148 -7 7 -12 5 -16
-5z"/>
<path d="M2252 213 l3 -78 53 -3 c31 -2 52 1 52 7 0 6 -20 11 -46 11 -44 0
-45 1 -42 28 3 23 8 28 43 33 l40 5 -40 5 c-32 3 -41 8 -43 27 -3 20 1 22 42
22 25 0 46 5 46 10 0 6 -25 10 -55 10 l-56 0 3 -77z"/>
<path d="M2450 210 c0 -47 4 -80 10 -80 6 0 10 14 10 30 0 25 4 30 26 30 19 0
28 -7 35 -30 6 -17 15 -30 20 -30 12 0 11 17 -2 42 -8 14 -8 23 0 31 6 6 11
23 11 39 0 33 -24 48 -74 48 l-36 0 0 -80z m89 42 c13 -25 0 -42 -35 -45 -26
-2 -29 1 -32 31 -3 30 -1 32 27 32 19 0 34 -7 40 -18z"/>
<path d="M2663 210 c0 -47 2 -66 4 -42 2 23 2 61 0 85 -2 23 -4 4 -4 -43z"/>
<path d="M2793 215 c-18 -41 -28 -77 -23 -80 5 -3 14 4 20 15 15 28 76 28 85
0 6 -18 25 -29 25 -14 0 14 -63 154 -69 154 -4 0 -21 -34 -38 -75z m51 9 c10
-26 7 -34 -14 -34 -11 0 -20 4 -20 9 0 17 12 41 20 41 4 0 11 -7 14 -16z"/>
</g>
</svg>
